<mxfile host="Electron" agent="Mozilla/5.0 (Windows NT 10.0; Win64; x64) AppleWebKit/537.36 (KHTML, like Gecko) draw.io/26.2.2 Chrome/134.0.6998.178 Electron/35.1.2 Safari/537.36" version="26.2.2">
  <diagram name="Page-1" id="l-kwA1K9KDZ8SkCAPsvy">
    <mxGraphModel dx="1032" dy="661" grid="1" gridSize="10" guides="1" tooltips="1" connect="1" arrows="1" fold="1" page="1" pageScale="1" pageWidth="827" pageHeight="1169" math="0" shadow="0" adaptiveColors="none">
      <root>
        <mxCell id="0" />
        <mxCell id="1" parent="0" />
        <mxCell id="qLxYgwr-_oIWtIv0q-1L-6" value="User" style="shape=umlActor;verticalLabelPosition=bottom;verticalAlign=top;html=1;outlineConnect=0;" parent="1" vertex="1">
          <mxGeometry x="40" y="60" width="30" height="60" as="geometry" />
        </mxCell>
        <mxCell id="qLxYgwr-_oIWtIv0q-1L-8" value="&quot;Search for House&quot; Button&lt;span style=&quot;background-color: transparent; color: light-dark(rgb(0, 0, 0), rgb(255, 255, 255));&quot;&gt;&amp;nbsp;&lt;/span&gt;" style="shape=umlBoundary;whiteSpace=wrap;html=1;" parent="1" vertex="1">
          <mxGeometry x="180" y="10" width="100" height="80" as="geometry" />
        </mxCell>
        <mxCell id="qLxYgwr-_oIWtIv0q-1L-10" value="" style="endArrow=classic;html=1;rounded=0;" parent="1" target="qLxYgwr-_oIWtIv0q-1L-8" edge="1">
          <mxGeometry width="50" height="50" relative="1" as="geometry">
            <mxPoint x="70" y="100" as="sourcePoint" />
            <mxPoint x="270" y="230" as="targetPoint" />
          </mxGeometry>
        </mxCell>
        <mxCell id="qLxYgwr-_oIWtIv0q-1L-13" value="Πατάει το κουμπί" style="edgeLabel;html=1;align=center;verticalAlign=middle;resizable=0;points=[];" parent="qLxYgwr-_oIWtIv0q-1L-10" vertex="1" connectable="0">
          <mxGeometry x="-0.1233" y="1" relative="1" as="geometry">
            <mxPoint as="offset" />
          </mxGeometry>
        </mxCell>
        <mxCell id="qLxYgwr-_oIWtIv0q-1L-14" value="Εμφανίζει" style="ellipse;shape=umlControl;whiteSpace=wrap;html=1;" parent="1" vertex="1">
          <mxGeometry x="530" y="20" width="70" height="80" as="geometry" />
        </mxCell>
        <mxCell id="qLxYgwr-_oIWtIv0q-1L-15" value="" style="endArrow=classic;html=1;rounded=0;exitX=0.984;exitY=0.537;exitDx=0;exitDy=0;exitPerimeter=0;entryX=0.045;entryY=0.417;entryDx=0;entryDy=0;entryPerimeter=0;" parent="1" source="qLxYgwr-_oIWtIv0q-1L-8" target="qLxYgwr-_oIWtIv0q-1L-14" edge="1">
          <mxGeometry width="50" height="50" relative="1" as="geometry">
            <mxPoint x="440" y="320" as="sourcePoint" />
            <mxPoint x="490" y="103" as="targetPoint" />
          </mxGeometry>
        </mxCell>
        <mxCell id="qLxYgwr-_oIWtIv0q-1L-16" value="&quot;Search For House&quot; Page" style="shape=umlBoundary;whiteSpace=wrap;html=1;" parent="1" vertex="1">
          <mxGeometry x="220" y="120" width="100" height="80" as="geometry" />
        </mxCell>
        <mxCell id="qLxYgwr-_oIWtIv0q-1L-17" value="" style="endArrow=classic;html=1;rounded=0;entryX=-0.028;entryY=0.558;entryDx=0;entryDy=0;entryPerimeter=0;" parent="1" source="qLxYgwr-_oIWtIv0q-1L-6" target="qLxYgwr-_oIWtIv0q-1L-16" edge="1">
          <mxGeometry width="50" height="50" relative="1" as="geometry">
            <mxPoint x="260" y="360" as="sourcePoint" />
            <mxPoint x="310" y="310" as="targetPoint" />
          </mxGeometry>
        </mxCell>
        <mxCell id="qLxYgwr-_oIWtIv0q-1L-18" value="Εισαγωγή Φίλτρων" style="edgeLabel;html=1;align=center;verticalAlign=middle;resizable=0;points=[];" parent="qLxYgwr-_oIWtIv0q-1L-17" vertex="1" connectable="0">
          <mxGeometry x="0.0831" y="3" relative="1" as="geometry">
            <mxPoint as="offset" />
          </mxGeometry>
        </mxCell>
        <mxCell id="qLxYgwr-_oIWtIv0q-1L-21" value="Φίλτρα Αναζήτησης" style="ellipse;shape=umlEntity;whiteSpace=wrap;html=1;" parent="1" vertex="1">
          <mxGeometry x="720" y="190" width="80" height="80" as="geometry" />
        </mxCell>
        <mxCell id="qLxYgwr-_oIWtIv0q-1L-22" value="Δημιουργία Φίλτρων Αναζήτησης" style="ellipse;shape=umlControl;whiteSpace=wrap;html=1;" parent="1" vertex="1">
          <mxGeometry x="510" y="180" width="70" height="80" as="geometry" />
        </mxCell>
        <mxCell id="qLxYgwr-_oIWtIv0q-1L-23" value="" style="endArrow=classic;html=1;rounded=0;exitX=0.976;exitY=0.533;exitDx=0;exitDy=0;exitPerimeter=0;entryX=-0.029;entryY=0.548;entryDx=0;entryDy=0;entryPerimeter=0;" parent="1" source="qLxYgwr-_oIWtIv0q-1L-16" target="qLxYgwr-_oIWtIv0q-1L-22" edge="1">
          <mxGeometry width="50" height="50" relative="1" as="geometry">
            <mxPoint x="430" y="400" as="sourcePoint" />
            <mxPoint x="480" y="350" as="targetPoint" />
          </mxGeometry>
        </mxCell>
        <mxCell id="qLxYgwr-_oIWtIv0q-1L-29" value="" style="endArrow=classic;html=1;rounded=0;entryX=0;entryY=0.5;entryDx=0;entryDy=0;" parent="1" target="qLxYgwr-_oIWtIv0q-1L-21" edge="1">
          <mxGeometry width="50" height="50" relative="1" as="geometry">
            <mxPoint x="582" y="220" as="sourcePoint" />
            <mxPoint x="680" y="350" as="targetPoint" />
          </mxGeometry>
        </mxCell>
        <mxCell id="qLxYgwr-_oIWtIv0q-1L-31" value="&quot;Begin Search&quot; Icon" style="shape=umlBoundary;whiteSpace=wrap;html=1;" parent="1" vertex="1">
          <mxGeometry x="220" y="270" width="100" height="80" as="geometry" />
        </mxCell>
        <mxCell id="qLxYgwr-_oIWtIv0q-1L-32" value="" style="endArrow=classic;html=1;rounded=0;entryX=-0.038;entryY=0.429;entryDx=0;entryDy=0;entryPerimeter=0;" parent="1" target="qLxYgwr-_oIWtIv0q-1L-31" edge="1">
          <mxGeometry width="50" height="50" relative="1" as="geometry">
            <mxPoint x="70" y="100" as="sourcePoint" />
            <mxPoint x="390" y="420" as="targetPoint" />
          </mxGeometry>
        </mxCell>
        <mxCell id="qLxYgwr-_oIWtIv0q-1L-33" value="Έλεγχος Ύπαρξης Φίλτρων" style="ellipse;shape=umlControl;whiteSpace=wrap;html=1;" parent="1" vertex="1">
          <mxGeometry x="510" y="280" width="70" height="80" as="geometry" />
        </mxCell>
        <mxCell id="qLxYgwr-_oIWtIv0q-1L-34" value="" style="endArrow=classic;html=1;rounded=0;exitX=0.991;exitY=0.57;exitDx=0;exitDy=0;exitPerimeter=0;entryX=0.056;entryY=0.583;entryDx=0;entryDy=0;entryPerimeter=0;" parent="1" source="qLxYgwr-_oIWtIv0q-1L-31" target="qLxYgwr-_oIWtIv0q-1L-33" edge="1">
          <mxGeometry width="50" height="50" relative="1" as="geometry">
            <mxPoint x="410" y="480" as="sourcePoint" />
            <mxPoint x="460" y="430" as="targetPoint" />
          </mxGeometry>
        </mxCell>
        <mxCell id="qLxYgwr-_oIWtIv0q-1L-37" value="Μap" style="shape=umlBoundary;whiteSpace=wrap;html=1;" parent="1" vertex="1">
          <mxGeometry x="220" y="440" width="100" height="80" as="geometry" />
        </mxCell>
        <mxCell id="qLxYgwr-_oIWtIv0q-1L-38" value="" style="endArrow=classic;html=1;rounded=0;exitX=0.286;exitY=1;exitDx=0;exitDy=0;exitPerimeter=0;entryX=0.682;entryY=0.027;entryDx=0;entryDy=0;entryPerimeter=0;" parent="1" source="qLxYgwr-_oIWtIv0q-1L-14" target="qLxYgwr-_oIWtIv0q-1L-37" edge="1">
          <mxGeometry width="50" height="50" relative="1" as="geometry">
            <mxPoint x="400" y="480" as="sourcePoint" />
            <mxPoint x="420" y="530" as="targetPoint" />
          </mxGeometry>
        </mxCell>
        <mxCell id="qLxYgwr-_oIWtIv0q-1L-39" value="" style="endArrow=classic;html=1;rounded=0;entryX=0.858;entryY=0.063;entryDx=0;entryDy=0;entryPerimeter=0;" parent="1" source="qLxYgwr-_oIWtIv0q-1L-14" target="qLxYgwr-_oIWtIv0q-1L-16" edge="1">
          <mxGeometry width="50" height="50" relative="1" as="geometry">
            <mxPoint x="400" y="480" as="sourcePoint" />
            <mxPoint x="450" y="430" as="targetPoint" />
          </mxGeometry>
        </mxCell>
        <mxCell id="qLxYgwr-_oIWtIv0q-1L-40" value="" style="endArrow=classic;html=1;rounded=0;entryX=-0.011;entryY=0.5;entryDx=0;entryDy=0;entryPerimeter=0;" parent="1" target="qLxYgwr-_oIWtIv0q-1L-37" edge="1">
          <mxGeometry width="50" height="50" relative="1" as="geometry">
            <mxPoint x="70" y="100" as="sourcePoint" />
            <mxPoint x="450" y="400" as="targetPoint" />
          </mxGeometry>
        </mxCell>
        <mxCell id="qLxYgwr-_oIWtIv0q-1L-41" value="Eπιλογή Σπιτιού για&lt;div&gt;Προβολή&lt;/div&gt;" style="edgeLabel;html=1;align=center;verticalAlign=middle;resizable=0;points=[];" parent="qLxYgwr-_oIWtIv0q-1L-40" vertex="1" connectable="0">
          <mxGeometry x="-0.0416" y="-3" relative="1" as="geometry">
            <mxPoint x="-13" as="offset" />
          </mxGeometry>
        </mxCell>
        <mxCell id="qLxYgwr-_oIWtIv0q-1L-45" value="" style="endArrow=classic;html=1;rounded=0;exitX=0.445;exitY=0.97;exitDx=0;exitDy=0;exitPerimeter=0;entryX=0.475;entryY=0.13;entryDx=0;entryDy=0;entryPerimeter=0;" parent="1" source="qLxYgwr-_oIWtIv0q-1L-33" target="qLxYgwr-_oIWtIv0q-1L-46" edge="1">
          <mxGeometry width="50" height="50" relative="1" as="geometry">
            <mxPoint x="400" y="490" as="sourcePoint" />
            <mxPoint x="540" y="470" as="targetPoint" />
          </mxGeometry>
        </mxCell>
        <mxCell id="qLxYgwr-_oIWtIv0q-1L-47" value="Ύπαρξη" style="edgeLabel;html=1;align=center;verticalAlign=middle;resizable=0;points=[];" parent="qLxYgwr-_oIWtIv0q-1L-45" vertex="1" connectable="0">
          <mxGeometry x="-0.0444" y="3" relative="1" as="geometry">
            <mxPoint as="offset" />
          </mxGeometry>
        </mxCell>
        <mxCell id="qLxYgwr-_oIWtIv0q-1L-46" value="&lt;div&gt;Αναζήτηση&lt;/div&gt;" style="ellipse;shape=umlControl;whiteSpace=wrap;html=1;" parent="1" vertex="1">
          <mxGeometry x="570" y="490" width="80" height="90" as="geometry" />
        </mxCell>
        <mxCell id="qLxYgwr-_oIWtIv0q-1L-50" value="ΒΔ" style="ellipse;shape=umlEntity;whiteSpace=wrap;html=1;" parent="1" vertex="1">
          <mxGeometry x="720" y="510" width="80" height="80" as="geometry" />
        </mxCell>
        <mxCell id="qLxYgwr-_oIWtIv0q-1L-51" value="" style="endArrow=classic;html=1;rounded=0;exitX=0;exitY=0.5;exitDx=0;exitDy=0;entryX=0.965;entryY=0.667;entryDx=0;entryDy=0;entryPerimeter=0;" parent="1" source="qLxYgwr-_oIWtIv0q-1L-50" target="qLxYgwr-_oIWtIv0q-1L-46" edge="1">
          <mxGeometry width="50" height="50" relative="1" as="geometry">
            <mxPoint x="400" y="460" as="sourcePoint" />
            <mxPoint x="450" y="410" as="targetPoint" />
          </mxGeometry>
        </mxCell>
        <mxCell id="qLxYgwr-_oIWtIv0q-1L-53" value="&amp;nbsp;Eφάνιση Προειδοποίησης" style="ellipse;shape=umlControl;whiteSpace=wrap;html=1;" parent="1" vertex="1">
          <mxGeometry x="400" y="420" width="70" height="80" as="geometry" />
        </mxCell>
        <mxCell id="qLxYgwr-_oIWtIv0q-1L-54" value="" style="endArrow=classic;html=1;rounded=0;exitX=0.155;exitY=0.903;exitDx=0;exitDy=0;exitPerimeter=0;entryX=0.866;entryY=0.2;entryDx=0;entryDy=0;entryPerimeter=0;" parent="1" source="qLxYgwr-_oIWtIv0q-1L-33" target="qLxYgwr-_oIWtIv0q-1L-53" edge="1">
          <mxGeometry width="50" height="50" relative="1" as="geometry">
            <mxPoint x="400" y="530" as="sourcePoint" />
            <mxPoint x="450" y="480" as="targetPoint" />
          </mxGeometry>
        </mxCell>
        <mxCell id="qLxYgwr-_oIWtIv0q-1L-56" value="Mh Ύπαρξη" style="edgeLabel;html=1;align=center;verticalAlign=middle;resizable=0;points=[];" parent="qLxYgwr-_oIWtIv0q-1L-54" vertex="1" connectable="0">
          <mxGeometry x="0.0179" y="1" relative="1" as="geometry">
            <mxPoint as="offset" />
          </mxGeometry>
        </mxCell>
        <mxCell id="qLxYgwr-_oIWtIv0q-1L-55" value="" style="endArrow=classic;html=1;rounded=0;exitX=0.05;exitY=0.703;exitDx=0;exitDy=0;exitPerimeter=0;entryX=0.986;entryY=0.453;entryDx=0;entryDy=0;entryPerimeter=0;" parent="1" source="qLxYgwr-_oIWtIv0q-1L-53" target="qLxYgwr-_oIWtIv0q-1L-37" edge="1">
          <mxGeometry width="50" height="50" relative="1" as="geometry">
            <mxPoint x="400" y="530" as="sourcePoint" />
            <mxPoint x="450" y="480" as="targetPoint" />
          </mxGeometry>
        </mxCell>
        <mxCell id="qLxYgwr-_oIWtIv0q-1L-57" value="" style="endArrow=classic;html=1;rounded=0;exitX=0.308;exitY=0.91;exitDx=0;exitDy=0;exitPerimeter=0;entryX=0.5;entryY=0;entryDx=0;entryDy=0;" parent="1" source="qLxYgwr-_oIWtIv0q-1L-37" target="qLxYgwr-_oIWtIv0q-1L-58" edge="1">
          <mxGeometry width="50" height="50" relative="1" as="geometry">
            <mxPoint x="400" y="500" as="sourcePoint" />
            <mxPoint x="290" y="720" as="targetPoint" />
          </mxGeometry>
        </mxCell>
        <mxCell id="qLxYgwr-_oIWtIv0q-1L-58" value="Use Case 8:&lt;div&gt;Eμφάνιση Αγγελίας Σπιτιού&lt;/div&gt;" style="ellipse;whiteSpace=wrap;html=1;" parent="1" vertex="1">
          <mxGeometry x="190" y="790" width="120" height="80" as="geometry" />
        </mxCell>
        <mxCell id="qLxYgwr-_oIWtIv0q-1L-59" value="Result OK?" style="ellipse;shape=umlControl;whiteSpace=wrap;html=1;" parent="1" vertex="1">
          <mxGeometry x="480" y="670" width="70" height="80" as="geometry" />
        </mxCell>
        <mxCell id="qLxYgwr-_oIWtIv0q-1L-60" value="" style="endArrow=classic;html=1;rounded=0;exitX=0.012;exitY=0.69;exitDx=0;exitDy=0;exitPerimeter=0;entryX=0.774;entryY=0.241;entryDx=0;entryDy=0;entryPerimeter=0;" parent="1" source="qLxYgwr-_oIWtIv0q-1L-46" target="qLxYgwr-_oIWtIv0q-1L-59" edge="1">
          <mxGeometry width="50" height="50" relative="1" as="geometry">
            <mxPoint x="400" y="500" as="sourcePoint" />
            <mxPoint x="450" y="450" as="targetPoint" />
          </mxGeometry>
        </mxCell>
        <mxCell id="qLxYgwr-_oIWtIv0q-1L-61" value="" style="endArrow=classic;html=1;rounded=0;exitX=0.04;exitY=0.68;exitDx=0;exitDy=0;exitPerimeter=0;entryX=0.965;entryY=0.435;entryDx=0;entryDy=0;entryPerimeter=0;" parent="1" source="qLxYgwr-_oIWtIv0q-1L-59" target="qLxYgwr-_oIWtIv0q-1L-62" edge="1">
          <mxGeometry width="50" height="50" relative="1" as="geometry">
            <mxPoint x="400" y="500" as="sourcePoint" />
            <mxPoint x="450" y="440" as="targetPoint" />
          </mxGeometry>
        </mxCell>
        <mxCell id="qLxYgwr-_oIWtIv0q-1L-69" value="&amp;nbsp;OK!&amp;nbsp;" style="edgeLabel;html=1;align=center;verticalAlign=middle;resizable=0;points=[];" parent="qLxYgwr-_oIWtIv0q-1L-61" vertex="1" connectable="0">
          <mxGeometry x="-0.0785" y="1" relative="1" as="geometry">
            <mxPoint as="offset" />
          </mxGeometry>
        </mxCell>
        <mxCell id="qLxYgwr-_oIWtIv0q-1L-62" value="Eμφάνιση Αποτελεσμάτων&lt;div&gt;&lt;br&gt;&lt;/div&gt;" style="ellipse;shape=umlControl;whiteSpace=wrap;html=1;" parent="1" vertex="1">
          <mxGeometry x="310" y="620" width="70" height="80" as="geometry" />
        </mxCell>
        <mxCell id="qLxYgwr-_oIWtIv0q-1L-63" value="" style="endArrow=classic;html=1;rounded=0;" parent="1" source="qLxYgwr-_oIWtIv0q-1L-62" target="qLxYgwr-_oIWtIv0q-1L-37" edge="1">
          <mxGeometry width="50" height="50" relative="1" as="geometry">
            <mxPoint x="400" y="500" as="sourcePoint" />
            <mxPoint x="450" y="450" as="targetPoint" />
          </mxGeometry>
        </mxCell>
        <mxCell id="qLxYgwr-_oIWtIv0q-1L-66" value="" style="endArrow=classic;html=1;rounded=0;exitX=0.218;exitY=0.242;exitDx=0;exitDy=0;exitPerimeter=0;entryX=0.637;entryY=0.97;entryDx=0;entryDy=0;entryPerimeter=0;" parent="1" source="qLxYgwr-_oIWtIv0q-1L-59" target="qLxYgwr-_oIWtIv0q-1L-53" edge="1">
          <mxGeometry width="50" height="50" relative="1" as="geometry">
            <mxPoint x="400" y="510" as="sourcePoint" />
            <mxPoint x="450" y="502" as="targetPoint" />
            <Array as="points" />
          </mxGeometry>
        </mxCell>
        <mxCell id="qLxYgwr-_oIWtIv0q-1L-72" value="NULL" style="edgeLabel;html=1;align=center;verticalAlign=middle;resizable=0;points=[];" parent="qLxYgwr-_oIWtIv0q-1L-66" vertex="1" connectable="0">
          <mxGeometry x="-0.1976" y="2" relative="1" as="geometry">
            <mxPoint as="offset" />
          </mxGeometry>
        </mxCell>
        <mxCell id="qLxYgwr-_oIWtIv0q-1L-73" value="" style="endArrow=classic;html=1;rounded=0;exitX=0;exitY=1;exitDx=0;exitDy=0;entryX=1;entryY=0.375;entryDx=0;entryDy=0;entryPerimeter=0;" parent="1" source="qLxYgwr-_oIWtIv0q-1L-21" target="qLxYgwr-_oIWtIv0q-1L-33" edge="1">
          <mxGeometry width="50" height="50" relative="1" as="geometry">
            <mxPoint x="430" y="490" as="sourcePoint" />
            <mxPoint x="480" y="440" as="targetPoint" />
          </mxGeometry>
        </mxCell>
        <mxCell id="nwb3exAsZeRp8O-MCHQr-1" value="&lt;b&gt;Use Case 7&lt;/b&gt;" style="ellipse;shape=cloud;whiteSpace=wrap;html=1;fillColor=#0050ef;fontColor=#ffffff;strokeColor=#001DBC;" vertex="1" parent="1">
          <mxGeometry x="670" width="120" height="80" as="geometry" />
        </mxCell>
      </root>
    </mxGraphModel>
  </diagram>
</mxfile>
